<?xml version="1.0" encoding="utf-8"?>
<svg version="1.1" xmlns="http://www.w3.org/2000/svg" width="128px" height="128px">
<path fill="#0E3A5A" d="M101.334,16H26.667C20.8,16,16,20.8,16,26.667v74.667C16,107.2,20.8,112,26.667,112h74.667
	C107.2,112,112,107.2,112,101.334V26.667C112,20.8,107.2,16,101.334,16 M69.334,37.867L75.2,32l7.466,7.467L90.133,32L96,37.867
	l-7.467,7.467L96,52.8l-5.867,5.867L82.666,51.2L75.2,58.667L69.334,52.8l7.466-7.466L69.334,37.867 M33.067,41.067h26.667v8H33.067
	V41.067 M61.333,85.334H50.667V96h-8V85.334H32v-8h10.667V66.666h8v10.668h10.667V85.334 M96,91.733H69.334v-8H96V91.733 M96,78.934
	H69.334v-8H96V78.934z"/>
</svg>
