<?xml version="1.0" encoding="utf-8"?>
<!-- Generator: Adobe Illustrator 14.0.0, SVG Export Plug-In . SVG Version: 6.00 Build 43363)  -->
<!DOCTYPE svg PUBLIC "-//W3C//DTD SVG 1.1//EN" "http://www.w3.org/Graphics/SVG/1.1/DTD/svg11.dtd">
<svg version="1.1" id="Layer_2" xmlns="http://www.w3.org/2000/svg" xmlns:xlink="http://www.w3.org/1999/xlink" x="0px" y="0px"
	 width="128px" height="128px" viewBox="0 0 128 128" enable-background="new 0 0 128 128" xml:space="preserve">
<path fill="#0E3A5A" d="M62.253,70.566L51.212,82.176c-5.152,5.42-11.921,8.129-18.691,8.129c-6.769,0-13.537-2.709-18.691-8.129
	c-4.993-5.25-7.742-12.229-7.742-19.652s2.75-14.403,7.742-19.653c4.992-5.25,11.044-7.877,17.751-8.124v9.228
	c-4.366,0.238-8.438,2.14-11.551,5.415c-3.337,3.508-5.174,8.173-5.174,13.134s1.838,9.627,5.174,13.135
	c3.444,3.621,7.967,5.432,12.491,5.432c4.524,0,9.047-1.809,12.492-5.432l10.84-11.397l3.2,3.151L62.253,70.566z"/>
<path fill="#0F88D2" enable-background="new    " d="M94.229,81.063v9.223c-6.454-0.238-12.837-2.939-17.753-8.109L63.844,68.895
	l-6.34-6.371L45.013,49.39c-3.115-3.275-7.186-5.176-11.552-5.415v-9.228c6.707,0.245,12.981,3.106,17.751,8.124l12.897,13.561
	l2.9,2.91l3.173,3.182l12.493,13.135C85.882,79.029,90.021,80.83,94.229,81.063z"/>
<path fill="#0E3A5A" d="M113.858,82.176c-4.916,5.17-11.299,7.871-17.751,8.109v-9.223c4.205-0.232,8.345-2.033,11.551-5.404
	c6.889-7.242,6.889-19.026,0-26.269c-1.667-1.754-3.611-3.115-5.728-4.035c-2.115-0.922-4.404-1.405-6.763-1.405
	c-4.719,0-9.155,1.931-12.492,5.44L71.647,60.985l-3.194-3.159l0,0l-3.193-3.162L76.478,42.87c4.991-5.25,11.63-8.141,18.69-8.141
	s13.699,2.892,18.69,8.141C124.164,53.708,124.164,71.34,113.858,82.176z"/>
</svg>
