<?xml version="1.0" encoding="utf-8"?>
<!-- Generator: Adobe Illustrator 14.0.0, SVG Export Plug-In . SVG Version: 6.00 Build 43363)  -->
<!DOCTYPE svg PUBLIC "-//W3C//DTD SVG 1.1//EN" "http://www.w3.org/Graphics/SVG/1.1/DTD/svg11.dtd">
<svg version="1.1" id="Layer_1" xmlns="http://www.w3.org/2000/svg" x="0px" y="0px"
     width="42px" height="42px" viewBox="0 0 42 42" enable-background="new 0 0 42 42" xml:space="preserve">
<path fill="#0E3A5A" d="M35.656,31.648l-1.015,2.285c-8.891,3.248-16.168,4.406-21.82,3.475c-3.59-0.59-6.302-2.094-8.152-4.506
	c-1.845-2.42-2.463-5.252-1.851-8.506C3.914,18.595,7.67,13.587,14.091,9.372c6.417-4.215,12.715-5.814,18.899-4.794
	c2.251,0.37,3.953,1.29,5.105,2.75c1.159,1.463,1.551,3.182,1.179,5.154c-0.746,3.95-3.858,6.933-9.345,8.958
	c-5.48,2.025-11.656,2.466-18.524,1.335l-0.301,1.387c-1.135,6.014,0.999,9.465,6.405,10.357
	C22.175,35.285,28.223,34.328,35.656,31.648z M11.832,20.902c5.724,0.562,10.369,0.097,13.927-1.385
	c3.564-1.482,5.642-3.819,6.248-7.013c0.592-3.156-0.513-4.96-3.315-5.417c-3.029-0.502-6.268,0.659-9.714,3.478
	C15.527,13.383,13.147,16.831,11.832,20.902z"/>
</svg>
