<?xml version="1.0" encoding="utf-8"?>
<svg version="1.1" xmlns="http://www.w3.org/2000/svg" width="128px" height="128px">
    <path fill="#0E3A5A" d="M12.23,121.484c-2.956-0.795-4.371-1.902-5.3-4.146c-1.572-3.797,1.33-8.104,5.459-8.104
	c2.493,0,5.024,1.955,7.403,5.722c1.711,2.708,2.764,2.976,5.393,1.373c4.053-2.472,7.167-9.339,10.179-22.45
	c4.357-18.965,10.721-49.795,10.432-50.546c-0.247-0.644-1.417-0.811-5.676-0.811h-5.366l0.559-2.44l0.559-2.441h5.746h5.747
	l1.173-4.909c2.809-11.759,9.994-21.666,18.922-26.09c3.748-1.857,5.235-2.292,8.576-2.506c2.223-0.143,4.907-0.097,5.967,0.102
	c5.39,1.011,7.58,7.22,3.858,10.941c-0.998,0.997-1.894,1.31-3.756,1.31c-2.889,0-5.453-1.92-7.709-5.77
	c-0.888-1.513-1.77-2.366-2.446-2.366c-2.925,0-6.257,3.491-8.65,9.059c-0.896,2.085-3.479,11.67-5.121,19.009
	c-0.272,1.218-0.261,1.22,6.969,1.22c3.982,0,7.375,0.134,7.539,0.297c0.164,0.164,0.053,1.262-0.246,2.44l-0.545,2.144h-7.449
	h-7.449l-0.944,4.475c-5.941,28.16-10.915,50.078-11.939,52.626c-2.066,5.135-4.652,8.926-9.156,13.421
	c-4.805,4.796-9.857,7.657-15.234,8.627C15.836,122.371,15.496,122.363,12.23,121.484z"/>
    <path fill="#0E3A5A" d="M61.579,92.764c-1.047-0.531-1.606-1.189-1.988-2.342c-1.464-4.416,3.177-7.604,8.481-5.824
	c1.089,0.365,2.305,0.664,2.701,0.664c1.512,0,9.953-11.08,9.953-13.063c0-1.729-3.654-14.34-4.699-16.216
	c-1.332-2.394-3.149-3.208-6.539-2.931C68,53.173,66.363,53.39,65.85,53.535c-0.884,0.249-0.908,0.197-0.475-1.027
	c0.501-1.414,1.145-1.757,6.708-3.574c3.099-1.012,3.578-1.065,5.672-0.633c4,0.826,5.242,2.695,7.539,11.346
	c0.72,2.705,1.397,5.184,1.509,5.509c0.12,0.354,1.551-1.436,3.557-4.448c3.826-5.749,8.346-10.67,10.926-11.9
	c2.955-1.408,6.629-0.845,7.732,1.186c0.647,1.192,0.514,3.819-0.25,4.893c-1.425,2.001-5.246,2.646-9.031,1.524l-1.934-0.573
	l-2.271,2.415c-2.405,2.558-7.729,10.138-7.729,11.002c0,1.07,3.797,13.681,4.566,15.167c0.931,1.796,2.943,3.596,4.438,3.964
	c0.566,0.142,2.625,0.175,4.572,0.072l3.542-0.183l-0.269,1.051c-0.332,1.304-0.446,1.372-4.553,2.718
	c-4.617,1.513-8.883,1.586-11.373,0.197c-2.266-1.267-3.345-3.421-5.133-10.259c-0.736-2.816-1.479-5.278-1.646-5.472
	c-0.17-0.19-1.475,1.376-2.899,3.483c-4.707,6.955-8.31,10.954-11.192,12.423C65.791,93.468,63.244,93.607,61.579,92.764
	L61.579,92.764z"/>
</svg>
