<?xml version="1.0" encoding="utf-8"?>
<!DOCTYPE svg PUBLIC "-//W3C//DTD SVG 1.1//EN" "http://www.w3.org/Graphics/SVG/1.1/DTD/svg11.dtd">
<svg version="1.1" id="Layer_1" xmlns="http://www.w3.org/2000/svg" x="0px" y="0px"
     width="800px" height="800px" viewBox="0 0 800 800" enable-background="new 0 0 800 800" xml:space="preserve">
<path fill="#033D5D" d="M77.654,225.006c0.029-13.807,11.245-24.976,25.053-24.947c0.01,0,0.021,0,0.031,0l593.084,1.443
	c13.813,0.031,25.013,11.281,25.013,25.082v349.957c0,13.818-11.21,25.125-25.025,25.25l-133.315,1.219
	c-6.918,0.071-12.489,5.697-12.493,12.615v68.756c0,6.9-4.344,8.994-9.735,4.65l-110.344-88.947
	c-16.115-12.987-15.969-33.894,0.31-46.672l109.919-86.3c5.438-4.271,9.85-2.141,9.85,4.794v67.131
	c-0.015,6.904,5.568,12.513,12.473,12.528c0.001,0,0.002,0,0.003,0h95.884c6.895-0.012,12.491-5.577,12.541-12.472l1.365-259.413
	c0.069-13.772-11.039-24.993-24.812-25.062c-0.013,0-0.025,0-0.038,0L151.144,253.2c-13.797-0.041-25.025,11.125-25.078,24.922
	l-0.969,248.45c-0.063,13.741,11.027,24.931,24.769,24.993c0.043,0,0.085,0,0.128,0H337.5c6.893,0.007,12.48,5.589,12.496,12.481
	v26.6c0.006,6.849-5.542,12.405-12.39,12.41c-0.038,0-0.075,0-0.113,0l-235.943-1.348c-13.803-0.081-24.959-11.355-24.919-25.149
	l1.019-351.55L77.654,225.006z"/>
</svg>
