<?xml version="1.0" encoding="utf-8"?>
<!DOCTYPE svg PUBLIC "-//W3C//DTD SVG 1.1//EN" "http://www.w3.org/Graphics/SVG/1.1/DTD/svg11.dtd">
<svg version="1.1"
     id="Layer_1" xmlns="http://www.w3.org/2000/svg" x="0px" y="0px" width="42px" height="42px"
     viewBox="0 0 42 42" enable-background="new 0 0 42 42" xml:space="preserve">
<g>
	<polygon fill="#0E3A5A" points="21.041,2.697 38.917,20.932 21.041,39.166 3.167,20.932 	"/>
    <path fill="#FFFFFF" d="M20.492,21.212v6.728c-1.374,0-2.473-0.562-2.747-1.683c-0.55-0.28-0.55-1.121-0.55-2.243h-2.199
		c0,1.401,0.276,2.522,0.825,3.364c0.824,1.683,2.472,2.522,4.946,2.522v2.522h1.099V29.9c1.374-0.279,2.747-0.562,3.299-1.121
		c1.373-0.84,1.924-2.243,1.924-4.484c0-1.402-0.551-2.804-1.649-3.364c-0.549-0.84-1.926-1.121-3.848-1.682v-6.167
		c1.1,0,1.922,0.561,2.473,1.402c0.276,0.561,0.551,1.122,0.551,1.682h2.197c0-1.401-0.549-2.523-1.373-3.363
		c-0.824-1.122-2.198-1.682-3.848-1.682V9.439h-1.099v1.682c-1.648,0-3.022,0.561-3.847,1.682c-0.824,0.84-1.373,1.962-1.373,3.363
		s0.549,2.523,1.373,3.364C17.47,20.371,18.568,20.932,20.492,21.212L20.492,21.212z"/>
    <path fill="#0E3A5A" d="M21.591,28.219v-6.727c1.101,0.279,1.923,0.563,2.197,0.841c0.825,0.562,1.101,1.401,1.101,2.522
		c0,0.561-0.275,1.121-0.549,1.682C24.063,27.659,22.964,27.939,21.591,28.219L21.591,28.219z"/>
    <path fill="#0E3A5A" d="M20.492,13.083c-1.099,0-1.924,0.28-2.473,0.841c-0.274,0.841-0.55,1.402-0.55,1.961
		c0,0.841,0.276,1.402,0.824,1.962c0.55,0.561,1.375,0.842,2.199,1.122V13.083z"/>
    <path fill="#0E3A5A" d="M20.492,13.083"/>
</g>
</svg>
