<?xml version="1.0" encoding="utf-8"?>
<!-- Generator: Adobe Illustrator 14.0.0, SVG Export Plug-In . SVG Version: 6.00 Build 43363)  -->
<!DOCTYPE svg PUBLIC "-//W3C//DTD SVG 1.1//EN" "http://www.w3.org/Graphics/SVG/1.1/DTD/svg11.dtd">
<svg version="1.1" id="Layer_1" xmlns="http://www.w3.org/2000/svg" xmlns:xlink="http://www.w3.org/1999/xlink" x="0px" y="0px"
	 width="42px" height="42px" viewBox="0 0 42 42" enable-background="new 0 0 42 42" xml:space="preserve">
<polygon fill="#0E3A5A" points="39,39 6.25,39 23.491,21.083 6.25,3.167 39,3.167 39,10.783 33.432,10.783 33.432,8.06 18.248,8.06 
	30.781,21.083 18.248,34.109 33.432,34.109 33.432,31.324 39,31.324 "/>
<path fill="#0E3A5A" d="M13.614,25.47l-0.347,0.94c-3.035,1.339-5.52,1.815-7.449,1.432c-1.226-0.243-2.151-0.862-2.783-1.856
	c-0.63-0.996-0.841-2.163-0.632-3.503c0.374-2.39,1.656-4.452,3.849-6.188c2.19-1.736,4.341-2.395,6.452-1.975
	c0.769,0.152,1.35,0.531,1.743,1.133c0.396,0.603,0.529,1.311,0.402,2.123c-0.255,1.627-1.317,2.855-3.19,3.689
	c-1.871,0.834-3.979,1.016-6.324,0.551l-0.103,0.57c-0.388,2.478,0.341,3.898,2.187,4.266C9.011,26.967,11.076,26.573,13.614,25.47z
	 M5.48,21.043c1.954,0.231,3.54,0.04,4.755-0.57c1.217-0.61,1.926-1.573,2.133-2.889c0.202-1.3-0.175-2.043-1.132-2.231
	c-1.034-0.207-2.14,0.271-3.316,1.433C6.742,17.946,5.929,19.366,5.48,21.043z"/>
</svg>
