<?xml version="1.0" encoding="utf-8"?>
<!DOCTYPE svg PUBLIC "-//W3C//DTD SVG 1.1//EN" "http://www.w3.org/Graphics/SVG/1.1/DTD/svg11.dtd">
<svg version="1.1" id="Layer_1" xmlns="http://www.w3.org/2000/svg" xmlns:xlink="http://www.w3.org/1999/xlink" x="0px" y="0px" width="24px" height="24px" viewBox="0 0 24 24" enable-background="new 0 0 24 24" xml:space="preserve">
<path fill="#0E3A5A" d="M19.955,18.185l-0.551,1.325c-4.825,1.888-8.774,2.561-11.844,2.019c-1.946-0.344-3.42-1.216-4.423-2.618
	c-1.003-1.404-1.338-3.049-1.006-4.938c0.595-3.369,2.633-6.278,6.118-8.726c3.483-2.448,6.904-3.375,10.261-2.783
	c1.22,0.214,2.144,0.748,2.771,1.596c0.627,0.85,0.84,1.848,0.639,2.994c-0.404,2.293-2.095,4.026-5.072,5.201
	c-2.977,1.176-6.329,1.433-10.056,0.777l-0.163,0.804c-0.616,3.493,0.542,5.497,3.476,6.015
	C12.639,20.296,15.922,19.74,19.955,18.185z M7.024,11.943c3.108,0.326,5.629,0.057,7.561-0.804
	c1.933-0.861,3.062-2.219,3.389-4.073c0.323-1.831-0.277-2.88-1.798-3.147c-1.645-0.29-3.403,0.384-5.274,2.02
	C9.03,7.577,7.739,9.579,7.024,11.943z"/>
</svg>
