<?xml version="1.0" encoding="UTF-8" standalone="no"?>
<!-- Generator: Adobe Illustrator 17.0.0, SVG Export Plug-In . SVG Version: 6.00 Build 0)  -->

<svg
   xmlns:dc="http://purl.org/dc/elements/1.1/"
   xmlns:cc="http://creativecommons.org/ns#"
   xmlns:rdf="http://www.w3.org/1999/02/22-rdf-syntax-ns#"
   xmlns:svg="http://www.w3.org/2000/svg"
   xmlns="http://www.w3.org/2000/svg"
   xmlns:sodipodi="http://sodipodi.sourceforge.net/DTD/sodipodi-0.dtd"
   xmlns:inkscape="http://www.inkscape.org/namespaces/inkscape"
   version="1.1"
   id="Layer_1"
   x="0px"
   y="0px"
   width="42px"
   height="42px"
   viewBox="0 0 42 42"
   enable-background="new 0 0 42 42"
   xml:space="preserve"
   inkscape:version="0.91 r13725"
   sodipodi:docname="expression.svg"><metadata
     id="metadata13"><rdf:RDF><cc:Work
         rdf:about=""><dc:format>image/svg+xml</dc:format><dc:type
           rdf:resource="http://purl.org/dc/dcmitype/StillImage" /><dc:title /></cc:Work></rdf:RDF></metadata><defs
     id="defs11" /><sodipodi:namedview
     pagecolor="#ffffff"
     bordercolor="#666666"
     borderopacity="1"
     objecttolerance="10"
     gridtolerance="10"
     guidetolerance="10"
     inkscape:pageopacity="0"
     inkscape:pageshadow="2"
     inkscape:window-width="3440"
     inkscape:window-height="1387"
     id="namedview9"
     showgrid="false"
     inkscape:zoom="11.313708"
     inkscape:cx="-55.098168"
     inkscape:cy="34.718403"
     inkscape:window-x="-8"
     inkscape:window-y="-8"
     inkscape:window-maximized="1"
     inkscape:current-layer="Layer_1" /><path
     style="opacity:1;fill:none;fill-opacity:0;fill-rule:nonzero;stroke:none;stroke-width:12.01181126;stroke-linecap:round;stroke-linejoin:round;stroke-miterlimit:4;stroke-dasharray:none;stroke-opacity:1"
     d="m 29.476296,37.842568 c -0.152117,-0.346003 -0.291333,-0.632623 -0.309369,-0.636935 -0.01804,-0.0043 -0.160207,-0.03138 -0.315935,-0.06016 -0.71041,-0.131266 -1.190619,-0.541199 -1.354277,-1.156085 -0.06721,-0.25252 -0.06618,-2.924222 0.0012,-3.183016 0.147702,-0.567066 0.559327,-0.952539 1.206966,-1.130283 0.329364,-0.09039 1.107994,-0.0966 1.435958,-0.01144 0.619721,0.160914 1.040175,0.52758 1.221131,1.064912 0.06232,0.18505 0.06686,0.274559 0.07748,1.527562 0.01263,1.490313 -0.0016,1.664386 -0.163611,2.007849 -0.184989,0.392069 -0.501658,0.66444 -0.934634,0.803889 -0.118852,0.03828 -0.216095,0.07914 -0.216095,0.09081 0,0.01167 0.09268,0.230016 0.205954,0.485223 0.113275,0.255206 0.201554,0.468411 0.196177,0.473789 -0.0054,0.0054 -0.181816,0.087 -0.392085,0.181376 l -0.382306,0.171599 -0.276576,-0.629095 z m 0.628338,-1.56122 c 0.231832,-0.114131 0.334785,-0.228014 0.410517,-0.454103 0.04293,-0.128173 0.05043,-0.338809 0.05043,-1.417867 0,-1.41814 -0.0098,-1.49954 -0.20653,-1.717308 -0.257017,-0.284487 -0.897779,-0.389234 -1.447141,-0.236568 -0.237311,0.06595 -0.40085,0.199578 -0.505787,0.413287 l -0.08995,0.183187 0,1.337061 c 0,1.478181 0.001,1.486896 0.198059,1.705003 0.216106,0.239204 0.454539,0.310315 1.000683,0.298447 0.3582,-0.0078 0.393164,-0.01437 0.589724,-0.111139 z"
     id="path4161"
     inkscape:connector-curvature="0" /><text
     xml:space="preserve"
     style="font-style:normal;font-weight:normal;font-size:53.391819px;line-height:125%;font-family:sans-serif;letter-spacing:0px;word-spacing:0px;fill:#3d6480;fill-opacity:1;stroke:none;stroke-width:1px;stroke-linecap:butt;stroke-linejoin:miter;stroke-opacity:1"
     x="-0.58169407"
     y="35.745544"
     id="text4140"
     sodipodi:linespacing="125%"
     transform="scale(1.0704145,0.93421754)"><tspan
       sodipodi:role="line"
       id="tspan4142"
       x="-0.58169407"
       y="35.745544"
       style="font-style:italic;font-variant:normal;font-weight:normal;font-stretch:normal;font-family:'Lucida Calligraphy';-inkscape-font-specification:'Lucida Calligraphy Italic';fill:#3d6480;fill-opacity:1">e</tspan></text>
</svg>