<?xml version="1.0" encoding="utf-8"?>
<!-- Generator: Adobe Illustrator 14.0.0, SVG Export Plug-In . SVG Version: 6.00 Build 43363)  -->
<!DOCTYPE svg PUBLIC "-//W3C//DTD SVG 1.1//EN" "http://www.w3.org/Graphics/SVG/1.1/DTD/svg11.dtd">
<svg version="1.1"
	 id="Layer_1" xmlns:dc="http://purl.org/dc/elements/1.1/" xmlns:cc="http://creativecommons.org/ns#" xmlns:rdf="http://www.w3.org/1999/02/22-rdf-syntax-ns#" xmlns:svg="http://www.w3.org/2000/svg"
	 xmlns="http://www.w3.org/2000/svg" xmlns:xlink="http://www.w3.org/1999/xlink" x="0px" y="0px" width="42px" height="42px"
	 viewBox="0 0 42 42" enable-background="new 0 0 42 42" xml:space="preserve">
<g enable-background="new    ">
	<path fill="#0E3A5A" d="M33.102,31.312l-0.866,2.082c-7.572,2.961-13.768,4.017-18.584,3.168c-3.053-0.539-5.367-1.909-6.941-4.11
		c-1.574-2.201-2.1-4.783-1.578-7.746c0.933-5.287,4.132-9.852,9.599-13.693s10.834-5.296,16.103-4.367
		c1.914,0.337,3.363,1.173,4.347,2.505c0.984,1.333,1.318,2.899,1.001,4.698c-0.634,3.598-3.286,6.318-7.958,8.161
		c-4.67,1.843-9.931,2.249-15.779,1.218l-0.255,1.262c-0.966,5.48,0.851,8.626,5.453,9.438
		C21.619,34.628,26.772,33.756,33.102,31.312z M12.811,21.521c4.876,0.512,8.831,0.091,11.863-1.261
		c3.032-1.352,4.805-3.482,5.317-6.392c0.507-2.872-0.434-4.518-2.821-4.938c-2.58-0.455-5.339,0.602-8.275,3.17
		C15.958,14.67,13.931,17.81,12.811,21.521z"/>
</g>
</svg>
