<?xml version="1.0" encoding="utf-8"?>
<!DOCTYPE svg PUBLIC "-//W3C//DTD SVG 1.1//EN" "http://www.w3.org/Graphics/SVG/1.1/DTD/svg11.dtd">
<svg version="1.1" id="svg2" xmlns="http://www.w3.org/2000/svg"  x="0px" y="0px" width="128px" height="128px"
	 viewBox="0 0 128 128" enable-background="new 0 0 128 128" xml:space="preserve">
<path id="path4144" fill="#0E3A5A" d="M12.23,121.484c-2.956-0.795-4.371-1.902-5.3-4.145
	c-1.572-3.797,1.33-8.105,5.459-8.105c2.493,0,5.024,1.955,7.403,5.722c1.711,2.708,2.764,2.976,5.393,1.373
	c4.053-2.472,7.167-9.339,10.179-22.45c4.357-18.965,10.721-49.795,10.432-50.546c-0.247-0.644-1.417-0.811-5.676-0.811h-5.366
	l0.559-2.44l0.559-2.441h5.746h5.747l1.173-4.909c2.809-11.759,9.994-21.666,18.922-26.09c3.748-1.857,5.236-2.292,8.576-2.506
	c2.223-0.143,4.907-0.097,5.967,0.102c5.39,1.011,7.58,7.22,3.858,10.941c-0.997,0.997-1.893,1.31-3.756,1.31
	c-2.888,0-5.453-1.92-7.709-5.77c-0.887-1.513-1.769-2.366-2.446-2.366c-2.924,0-6.257,3.491-8.65,9.059
	c-0.896,2.085-3.479,11.67-5.121,19.009c-0.272,1.218-0.261,1.22,6.969,1.22c3.983,0,7.376,0.134,7.539,0.297
	c0.164,0.164,0.053,1.262-0.246,2.44l-0.545,2.144h-7.448h-7.449l-0.944,4.475c-5.941,28.16-10.915,50.078-11.939,52.626
	c-2.066,5.135-4.652,8.926-9.156,13.421c-4.805,4.796-9.857,7.657-15.234,8.627C15.836,122.371,15.496,122.363,12.23,121.484z"/>
<path id="path4146" fill="#0E3A5A" d="M61.579,92.764c-1.047-0.531-1.606-1.19-1.988-2.342
	c-1.464-4.416,3.177-7.604,8.481-5.825c1.089,0.366,2.305,0.665,2.702,0.665c1.511,0,9.952-11.08,9.952-13.064
	c0-1.729-3.654-14.34-4.699-16.216c-1.332-2.394-3.149-3.208-6.539-2.931c-1.488,0.122-3.125,0.339-3.638,0.484
	c-0.884,0.249-0.908,0.197-0.475-1.027c0.501-1.414,1.145-1.757,6.708-3.574c3.098-1.012,3.578-1.065,5.672-0.633
	c4,0.826,5.242,2.695,7.539,11.346c0.719,2.705,1.397,5.184,1.508,5.509c0.121,0.354,1.551-1.436,3.557-4.448
	c3.826-5.749,8.346-10.67,10.926-11.9c2.955-1.408,6.629-0.845,7.732,1.186c0.648,1.192,0.514,3.819-0.25,4.893
	c-1.424,2.001-5.245,2.646-9.031,1.524l-1.934-0.573l-2.271,2.415c-2.405,2.558-7.729,10.137-7.729,11.002
	c0,1.07,3.797,13.68,4.567,15.167c0.931,1.796,2.944,3.596,4.437,3.964c0.567,0.141,2.625,0.174,4.573,0.072l3.542-0.183
	l-0.269,1.051c-0.332,1.304-0.446,1.372-4.553,2.718c-4.616,1.512-8.882,1.586-11.372,0.197c-2.266-1.266-3.345-3.42-5.133-10.258
	c-0.737-2.817-1.479-5.279-1.647-5.472c-0.169-0.191-1.474,1.376-2.899,3.483c-4.707,6.955-8.309,10.954-11.193,12.423
	C65.791,93.468,63.244,93.608,61.579,92.764L61.579,92.764z"/>
</svg>
