<?xml version="1.0" encoding="UTF-8" standalone="no"?>
<!-- Generator: Adobe Illustrator 17.0.0, SVG Export Plug-In . SVG Version: 6.00 Build 0)  -->

<svg
   xmlns:dc="http://purl.org/dc/elements/1.1/"
   xmlns:cc="http://creativecommons.org/ns#"
   xmlns:rdf="http://www.w3.org/1999/02/22-rdf-syntax-ns#"
   xmlns:svg="http://www.w3.org/2000/svg"
   xmlns="http://www.w3.org/2000/svg"
   xmlns:sodipodi="http://sodipodi.sourceforge.net/DTD/sodipodi-0.dtd"
   xmlns:inkscape="http://www.inkscape.org/namespaces/inkscape"
   version="1.1"
   id="Layer_1"
   x="0px"
   y="0px"
   width="42px"
   height="42px"
   viewBox="0 0 42 42"
   enable-background="new 0 0 42 42"
   xml:space="preserve"
   inkscape:version="0.91 r13725"
   sodipodi:docname="Timestamp.svg"><metadata
     id="metadata13"><rdf:RDF><cc:Work
         rdf:about=""><dc:format>image/svg+xml</dc:format><dc:type
           rdf:resource="http://purl.org/dc/dcmitype/StillImage" /><dc:title></dc:title></cc:Work></rdf:RDF></metadata><defs
     id="defs11" /><sodipodi:namedview
     pagecolor="#ffffff"
     bordercolor="#666666"
     borderopacity="1"
     objecttolerance="10"
     gridtolerance="10"
     guidetolerance="10"
     inkscape:pageopacity="0"
     inkscape:pageshadow="2"
     inkscape:window-width="1920"
     inkscape:window-height="1027"
     id="namedview9"
     showgrid="false"
     inkscape:zoom="2.8284271"
     inkscape:cx="-144.92015"
     inkscape:cy="-8.673106"
     inkscape:window-x="-8"
     inkscape:window-y="-8"
     inkscape:window-maximized="1"
     inkscape:current-layer="Layer_1" /><g
     id="g4291"
     transform="matrix(0.38266263,0,0,0.36430952,-237.61523,-110.48342)" /><g
     id="g4293"
     transform="matrix(0.38266263,0,0,0.36430952,-237.61523,-110.48342)" /><g
     id="g4295"
     transform="matrix(0.38266263,0,0,0.36430952,-237.61523,-110.48342)" /><g
     id="g4297"
     transform="matrix(0.38266263,0,0,0.36430952,-237.61523,-110.48342)" /><g
     id="g4299"
     transform="matrix(0.38266263,0,0,0.36430952,-237.61523,-110.48342)" /><g
     id="g4301"
     transform="matrix(0.38266263,0,0,0.36430952,-237.61523,-110.48342)" /><g
     id="g4303"
     transform="matrix(0.38266263,0,0,0.36430952,-237.61523,-110.48342)" /><g
     id="g4305"
     transform="matrix(0.38266263,0,0,0.36430952,-237.61523,-110.48342)" /><g
     id="g4307"
     transform="matrix(0.38266263,0,0,0.36430952,-237.61523,-110.48342)" /><g
     id="g4309"
     transform="matrix(0.38266263,0,0,0.36430952,-237.61523,-110.48342)" /><g
     id="g4311"
     transform="matrix(0.38266263,0,0,0.36430952,-237.61523,-110.48342)" /><g
     id="g4313"
     transform="matrix(0.38266263,0,0,0.36430952,-237.61523,-110.48342)" /><g
     id="g4315"
     transform="matrix(0.38266263,0,0,0.36430952,-237.61523,-110.48342)" /><g
     id="g4317"
     transform="matrix(0.38266263,0,0,0.36430952,-237.61523,-110.48342)" /><g
     id="g4319"
     transform="matrix(0.38266263,0,0,0.36430952,-237.61523,-110.48342)" /><g
     id="g4773"
     style="fill:#3d6480;fill-opacity:1"
     transform="matrix(0.43259802,0,0,0.38902382,42.192825,-19.555946)"><g
       transform="matrix(0.32755532,0,0,0.3392314,-205.23729,-49.607385)"
       id="g4460"
       style="fill:#3d6480;fill-opacity:1"><g
         id="g4462"
         style="fill:#3d6480;fill-opacity:1"><g
           id="g4464"
           style="fill:#3d6480;fill-opacity:1"><path
             id="path4466"
             d="m 479.808,326.519 c -73.02,0 -132.228,59.227 -132.228,132.229 0,72.983 59.208,132.174 132.228,132.174 72.984,0 132.192,-59.19 132.192,-132.174 0,-73.003 -59.208,-132.229 -132.192,-132.229 z m 8.484,229.95 0,-11.415 c 0,-4.722 -3.808,-8.538 -8.484,-8.538 -4.722,0 -8.521,3.826 -8.521,8.538 l 0,11.415 c -47.341,-4.07 -85.158,-41.896 -89.229,-89.229 l 11.451,0 c 4.677,0 8.502,-3.809 8.502,-8.484 0,-4.758 -3.825,-8.521 -8.502,-8.521 l -11.451,0 c 4.07,-47.351 41.896,-85.14 89.229,-89.229 l 0,11.433 c 0,4.704 3.809,8.521 8.521,8.521 4.677,0 8.484,-3.826 8.484,-8.521 l 0,-11.433 c 47.359,4.089 85.177,41.878 89.229,89.229 l -11.451,0 c -4.703,0 -8.502,3.771 -8.502,8.521 0,4.686 3.808,8.484 8.502,8.484 l 11.451,0 c -4.043,47.332 -41.87,85.149 -89.229,89.229 z"
             inkscape:connector-curvature="0"
             style="fill:#3d6480;fill-opacity:1" /></g></g></g><g
       transform="matrix(0.32755532,0,0,0.3392314,-205.23729,-49.607385)"
       id="g4468"
       style="fill:#3d6480;fill-opacity:1"><g
         id="g4470"
         style="fill:#3d6480;fill-opacity:1"><g
           id="g4472"
           style="fill:#3d6480;fill-opacity:1"><path
             id="path4474"
             d="m 529.066,445.966 -30.671,0 c -4.089,-5.897 -10.881,-9.813 -18.588,-9.813 -0.117,0 -0.244,0.036 -0.38,0.036 l -27.948,-39.346 c -4.07,-5.726 -12.048,-7.055 -17.792,-3.003 -5.726,4.089 -7.101,12.084 -3.003,17.828 l 27.967,39.363 c -0.859,2.415 -1.41,4.984 -1.41,7.725 0,12.464 10.085,22.549 22.566,22.549 7.707,0 14.535,-3.88 18.588,-9.796 l 30.671,0 c 7.037,0 12.763,-5.688 12.763,-12.744 0,-7.091 -5.725,-12.799 -12.763,-12.799 z"
             inkscape:connector-curvature="0"
             style="fill:#3d6480;fill-opacity:1" /></g></g></g></g><g
     id="g4540"
     transform="matrix(0.32755532,0,0,0.3392314,-266.40203,-98.0442)" /><g
     id="g4542"
     transform="matrix(0.32755532,0,0,0.3392314,-266.40203,-98.0442)" /><g
     id="g4544"
     transform="matrix(0.32755532,0,0,0.3392314,-266.40203,-98.0442)" /><g
     id="g4546"
     transform="matrix(0.32755532,0,0,0.3392314,-266.40203,-98.0442)" /><g
     id="g4548"
     transform="matrix(0.32755532,0,0,0.3392314,-266.40203,-98.0442)" /><g
     id="g4550"
     transform="matrix(0.32755532,0,0,0.3392314,-266.40203,-98.0442)" /><g
     id="g4552"
     transform="matrix(0.32755532,0,0,0.3392314,-266.40203,-98.0442)" /><g
     id="g4554"
     transform="matrix(0.32755532,0,0,0.3392314,-266.40203,-98.0442)" /><g
     id="g4556"
     transform="matrix(0.32755532,0,0,0.3392314,-266.40203,-98.0442)" /><g
     id="g4558"
     transform="matrix(0.32755532,0,0,0.3392314,-266.40203,-98.0442)" /><g
     id="g4560"
     transform="matrix(0.32755532,0,0,0.3392314,-266.40203,-98.0442)" /><g
     id="g4562"
     transform="matrix(0.32755532,0,0,0.3392314,-266.40203,-98.0442)" /><g
     id="g4564"
     transform="matrix(0.32755532,0,0,0.3392314,-266.40203,-98.0442)" /><g
     id="g4566"
     transform="matrix(0.32755532,0,0,0.3392314,-266.40203,-98.0442)" /><g
     id="g4568"
     transform="matrix(0.32755532,0,0,0.3392314,-266.40203,-98.0442)" /></svg>