<?xml version="1.0" encoding="utf-8"?>
<!-- Generator: Adobe Illustrator 14.0.0, SVG Export Plug-In . SVG Version: 6.00 Build 43363)  -->
<!DOCTYPE svg PUBLIC "-//W3C//DTD SVG 1.1//EN" "http://www.w3.org/Graphics/SVG/1.1/DTD/svg11.dtd">
<svg version="1.1" id="mdi-filter" xmlns="http://www.w3.org/2000/svg" xmlns:xlink="http://www.w3.org/1999/xlink" x="0px" y="0px"
	 width="24px" height="24px" viewBox="0 0 24 24" enable-background="new 0 0 24 24" xml:space="preserve">
<path fill="#0E3A5A" d="M14.25,12.123v8.864c0.045,0.335-0.069,0.695-0.326,0.934c-0.439,0.437-1.148,0.437-1.586,0l-2.261-2.262
	c-0.259-0.259-0.371-0.607-0.327-0.933v-6.603H9.717l-6.479-8.3C2.855,3.338,2.945,2.63,3.429,2.248C3.643,2.09,3.879,2,4.126,2l0,0
	h15.746l0,0c0.249,0,0.484,0.09,0.699,0.248c0.483,0.382,0.573,1.091,0.191,1.575l-6.48,8.3H14.25z"/>
</svg>
