<?xml version="1.0" encoding="utf-8"?>
<!-- Generator: Adobe Illustrator 14.0.0, SVG Export Plug-In . SVG Version: 6.00 Build 43363)  -->
<!DOCTYPE svg PUBLIC "-//W3C//DTD SVG 1.1//EN" "http://www.w3.org/Graphics/SVG/1.1/DTD/svg11.dtd">
<svg version="1.1" id="Layer_1" xmlns="http://www.w3.org/2000/svg" xmlns:xlink="http://www.w3.org/1999/xlink" x="0px" y="0px"
	 width="42px" height="42px" viewBox="0 0 42 42" enable-background="new 0 0 42 42" xml:space="preserve">
<path fill="#0E3A5A" d="M25.043,21.205v14.846c0.084,0.563-0.128,1.164-0.61,1.565c-0.822,0.73-2.148,0.73-2.966,0l-4.229-3.788
	c-0.484-0.434-0.694-1.018-0.612-1.563V21.205h-0.063L4.446,7.304C3.73,6.491,3.898,5.305,4.804,4.666
	C5.203,4.4,5.645,4.25,6.106,4.25l0,0h29.451l0,0c0.466,0,0.904,0.15,1.306,0.416c0.906,0.64,1.074,1.827,0.357,2.638L25.103,21.205
	H25.043z"/>
</svg>
